<?xml version="1.0" standalone="no"?>
<!DOCTYPE svg PUBLIC "-//W3C//DTD SVG 20010904//EN"
 "http://www.w3.org/TR/2001/REC-SVG-20010904/DTD/svg10.dtd">
<svg version="1.0" xmlns="http://www.w3.org/2000/svg"
 width="700.000000pt" height="700.000000pt" viewBox="0 0 700.000000 700.000000"
 preserveAspectRatio="xMidYMid meet">
<metadata>
Created by potrace 1.11, written by Peter Selinger 2001-2013
</metadata>
<g transform="translate(0.000000,700.000000) scale(0.100000,-0.100000)"
fill="#000000" stroke="none">
<path d="M6475 6994 c-478 -31 -774 -73 -1125 -159 -894 -219 -1686 -622
-2405 -1221 -159 -133 -516 -486 -654 -649 -598 -701 -1024 -1513 -1242 -2372
l-44 -171 -62 -17 c-91 -25 -266 -114 -358 -183 -149 -111 -294 -281 -372
-437 -42 -82 -87 -213 -109 -315 -24 -113 -25 -371 0 -480 100 -448 407 -791
831 -928 183 -60 81 -57 2060 -57 2021 0 1851 -6 2036 66 219 84 435 298 524
518 72 177 90 406 46 586 -28 115 -103 270 -174 362 l-57 73 39 89 c158 363
464 653 831 786 147 53 272 76 450 82 l165 6 32 32 33 33 0 2146 0 2146 -29
32 -29 33 -169 1 c-92 1 -190 0 -218 -2z m235 -519 l0 -315 -32 0 c-84 -1
-396 -22 -513 -35 -1021 -118 -1992 -548 -2748 -1217 -117 -104 -129 -118
-129 -162 0 -44 16 -72 52 -91 63 -32 73 -27 252 129 645 563 1474 954 2321
1096 257 43 537 70 725 70 l82 0 0 -318 0 -318 -207 -12 c-218 -13 -418 -37
-591 -71 -721 -144 -1380 -468 -1937 -952 -191 -165 -500 -500 -617 -667 -16
-23 -16 -23 -140 -12 -193 16 -451 -10 -630 -64 -27 -8 -48 -12 -48 -10 0 10
100 170 191 304 114 168 231 321 360 467 50 57 94 116 98 131 25 90 -69 164
-147 116 -31 -19 -177 -185 -299 -341 -156 -200 -400 -583 -493 -773 -17 -35
-35 -53 -80 -79 -152 -88 -356 -270 -472 -422 -82 -107 -170 -257 -219 -370
l-42 -99 -109 0 c-59 0 -108 4 -108 8 0 21 86 320 132 456 435 1303 1344 2417
2538 3111 74 43 233 127 355 186 541 264 1077 429 1670 514 146 20 231 29 470
48 22 2 102 4 178 5 l137 2 0 -315z m0 -1689 l0 -315 -42 -5 c-24 -3 -97 -8
-163 -11 -208 -9 -588 -75 -642 -110 -33 -22 -46 -53 -40 -99 4 -29 14 -48 34
-64 33 -28 58 -26 238 12 156 33 317 54 488 62 l137 7 0 -321 0 -322 -54 0
c-72 0 -240 -17 -356 -36 -376 -63 -758 -228 -1079 -466 -119 -89 -386 -354
-473 -470 l-64 -86 -38 76 c-54 110 -171 282 -265 388 l-80 91 93 104 c298
336 684 612 1109 794 97 42 127 70 127 122 0 44 -54 103 -94 103 -33 0 -230
-85 -376 -162 -367 -194 -682 -449 -986 -796 l-29 -33 -100 67 c-109 74 -280
159 -390 194 -38 13 -74 27 -79 31 -24 21 343 419 549 597 368 316 768 554
1218 721 390 145 860 236 1235 240 l122 1 0 -314z m0 -1690 l0 -315 -57 -6
c-246 -25 -354 -48 -512 -109 -389 -150 -710 -445 -889 -816 -25 -52 -46 -96
-47 -98 -1 -1 -30 14 -64 34 -64 38 -239 104 -277 104 -20 0 -22 7 -29 100 -3
55 -17 151 -30 213 l-23 112 25 43 c46 80 177 246 278 351 222 231 469 403
759 526 244 103 548 171 779 174 l87 1 0 -314z m-3308 275 c465 -100 849 -393
1063 -812 104 -203 165 -446 165 -655 0 -106 12 -156 42 -182 9 -7 57 -19 108
-28 287 -46 519 -240 607 -509 35 -108 43 -278 18 -392 -59 -269 -269 -488
-542 -566 l-78 -22 -1715 -3 c-1123 -2 -1755 1 -1830 7 -273 25 -486 125 -667
314 -168 176 -260 375 -283 614 -61 642 490 1182 1135 1113 139 -15 164 -6
191 67 106 292 220 471 417 659 242 231 521 363 882 418 17 2 111 3 210 1 134
-3 205 -9 277 -24z"/>
<path d="M1714 1712 c-38 -30 -44 -57 -44 -182 0 -70 5 -131 11 -143 32 -63
111 -77 160 -28 l29 29 0 142 0 142 -29 29 c-35 34 -93 39 -127 11z"/>
<path d="M3801 1716 c-42 -24 -50 -52 -51 -186 0 -130 6 -153 50 -187 27 -22
86 -15 119 13 l31 26 0 145 0 145 -29 29 c-33 32 -78 38 -120 15z"/>
<path d="M2500 1529 c-38 -15 -60 -49 -60 -94 0 -35 6 -45 58 -95 116 -112
274 -154 427 -115 104 27 218 103 251 167 30 57 -4 127 -68 143 -37 9 -61 0
-116 -47 -113 -99 -238 -100 -357 -2 -59 48 -95 59 -135 43z"/>
</g>
</svg>
